<svg xmlns="http://www.w3.org/2000/svg" width="32" height="32" viewBox="0 0 32 32">
<style>@media (prefers-reduced-motion: no-preference){.strain{transform-origin:12px 27px;animation:strain 2.8s ease-in-out infinite}@keyframes strain{0%,100%{transform:translateX(0) rotate(0deg)}50%{transform:translateX(.45px) rotate(1deg)}}}</style>
<g fill="#B7B1A7"><rect x="2.5" y="26" width="7" height="4" rx="2"/><rect x="15" y="27" width="6" height="3" rx="1.5"/></g>
<path d="M22 14L28.5 14V11.5Q28.5 10 30 10Q31.2 10 31.2 11.5V17H22Z" fill="#E3DED5" stroke="#B7B1A7" stroke-width="1.6" stroke-linejoin="round"/>
<g class="strain">
<path d="M18 6L19 3.5" stroke="#B7B1A7" stroke-width="2" stroke-linecap="round"/><circle cx="19" cy="3" r="1.5" fill="#E5704A"/>
<path d="M7 12C8 7 12 5 18 6C24 7 26 10 24 16L22 23C21 28 17 29 10 27C4 26 2.5 23 4 19Z" fill="#E3DED5" stroke="#B7B1A7" stroke-width="1.6"/>
<path d="M13 10L20 11Q25 12 23.5 17L22.5 20Q21.5 24 17 23L10 21Q6 20 7.5 16L8 14Q9 9 13 10Z" fill="#E5704A"/>
<path d="M10 25L15.8 26.5" stroke="#B7B1A7" stroke-width="1.5" stroke-linecap="round"/>
<g fill="#F6BC9F"><rect x="9" y="18.5" width="3.2" height="1.8" rx=".9"/><rect x="19" y="20" width="3.2" height="1.8" rx=".9"/></g>
<g class="eyes" fill="#24272B"><circle cx="13" cy="16" r="1.35"/><circle cx="21" cy="17" r="1.35"/></g>
<path d="M11.8 12.7L14.4 14M20 14.6L22.5 14" fill="none" stroke="#24272B" stroke-width="1.2" stroke-linecap="round"/>
</g>
<path d="M21 20L28.5 22V20Q28.5 18.5 30 18.5Q31.2 18.5 31.2 20V25L20 23" fill="#E3DED5" stroke="#B7B1A7" stroke-width="1.6" stroke-linecap="round" stroke-linejoin="round"/>
</svg>
