<svg xmlns="http://www.w3.org/2000/svg" width="64" height="64" viewBox="0 0 64 64" role="img"><title>记录员</title><g transform="translate(6.5 6.5) scale(1.5)"><rect x="8" y="26" width="5" height="4" rx="2" fill="#24272B" stroke="none" stroke-width="1.6"/><rect x="20" y="26" width="5" height="4" rx="2" fill="#24272B" stroke="none" stroke-width="1.6"/><path d="M17 5V3" fill="none" stroke="#24272B" stroke-width="2" stroke-linecap="round" stroke-linejoin="round"/><circle cx="17" cy="3" r="1.5" fill="#E5704A" stroke="none" stroke-width="1.6"/><path d="M5 12C5 7 9 5 16 5C24 5 28 8 28 13V23C28 27 24 29 16 29C9 29 4 27 4 23Z" fill="#F5F3EF" stroke="#24272B" stroke-width="1.6" stroke-linecap="round" stroke-linejoin="round"/><rect x="7" y="10" width="18" height="13" rx="5" fill="#E5704A" stroke="none" stroke-width="1.6"/><path d="M13 26H19" fill="none" stroke="#24272B" stroke-width="1.5" stroke-linecap="round" stroke-linejoin="round"/><rect x="8.5" y="19" width="3.2" height="1.8" rx="0.9" fill="#F6BC9F" stroke="none" stroke-width="1.6"/><rect x="20.3" y="19" width="3.2" height="1.8" rx="0.9" fill="#F6BC9F" stroke="none" stroke-width="1.6"/><circle cx="12" cy="16" r="1.35" fill="#24272B" stroke="none" stroke-width="1.6"/><path d="M18.5 15l2 1-2 1" fill="none" stroke="#24272B" stroke-width="1.6" stroke-linecap="round" stroke-linejoin="round"/><path d="M14.5 19q1.5 1.8 3 0" fill="none" stroke="#24272B" stroke-width="1.1" stroke-linecap="round" stroke-linejoin="round"/><path d="M21 30l-1-5L29 9l4 2-9 16Z" fill="#F2CB6B" stroke="#24272B" stroke-width="1.6" stroke-linecap="round" stroke-linejoin="round"/><path d="M20 25l4 2-3 3Z" fill="#F5F3EF" stroke="#24272B" stroke-width="1.6" stroke-linecap="round" stroke-linejoin="round"/><path d="M29 9l1-2q1-2 3-1t1 3l-1 2Z" fill="#E5704A" stroke="#24272B" stroke-width="1.6" stroke-linecap="round" stroke-linejoin="round"/><circle cx="24" cy="23" r="2" fill="#F5F3EF" stroke="#24272B" stroke-width="1.6"/></g></svg>
