<svg xmlns="http://www.w3.org/2000/svg" width="64" height="64" viewBox="0 0 64 64" role="img"><title>代码重构</title><g><path d="M19 12V7" fill="none" stroke="#24272B" stroke-width="1.6" stroke-linecap="round" stroke-linejoin="round"/><circle cx="19" cy="7" r="1.8" fill="#81B5D1" stroke="#24272B" stroke-width="1.6"/><path d="M7 20Q7 12 19 12T31 20V28Q31 33 19 33T7 28Z" fill="#F5F3EF" stroke="#24272B" stroke-width="1.6" stroke-linecap="round" stroke-linejoin="round"/><rect x="10" y="17" width="18" height="12" rx="4" fill="#81B5D1" stroke="none" stroke-width="1.6"/><circle cx="15" cy="22" r="1.2" fill="#24272B" stroke="none" stroke-width="1.6"/><circle cx="23" cy="22" r="1.2" fill="#24272B" stroke="none" stroke-width="1.6"/><rect x="11" y="25" width="3.5" height="1.8" rx="0.9" fill="#F6BC9F" stroke="none" stroke-width="1.6"/><rect x="23.5" y="25" width="3.5" height="1.8" rx="0.9" fill="#F6BC9F" stroke="none" stroke-width="1.6"/><rect x="17" y="22" width="11" height="11" rx="2" fill="#81B5D1" stroke="#24272B" stroke-width="1.6"/><rect x="17" y="44" width="11" height="11" rx="2" fill="#81B5D1" stroke="#24272B" stroke-width="1.6"/><rect x="44" y="33" width="12" height="12" rx="2" fill="#86B7A2" stroke="#24272B" stroke-width="1.6"/><path d="M30 25h7q7 0 7 6M40 28l4 4 4-4M42 51H35q-7 0-7-6M24 48l4-4 4 4" fill="none" stroke="#24272B" stroke-width="2.5" stroke-linecap="round" stroke-linejoin="round"/></g></svg>
