<svg xmlns="http://www.w3.org/2000/svg" width="64" height="64" viewBox="0 0 64 64" role="img"><title>守护者</title><g transform="translate(6.5 6.5) scale(1.5)"><rect x="8" y="26" width="5" height="4" rx="2" fill="#24272B" stroke="none" stroke-width="1.6"/><rect x="20" y="26" width="5" height="4" rx="2" fill="#24272B" stroke="none" stroke-width="1.6"/><path d="M17 5V3" fill="none" stroke="#24272B" stroke-width="2" stroke-linecap="round" stroke-linejoin="round"/><circle cx="17" cy="3" r="1.5" fill="#E5704A" stroke="none" stroke-width="1.6"/><path d="M5 12C5 7 9 5 16 5C24 5 28 8 28 13V23C28 27 24 29 16 29C9 29 4 27 4 23Z" fill="#F5F3EF" stroke="#24272B" stroke-width="1.6" stroke-linecap="round" stroke-linejoin="round"/><rect x="7" y="10" width="18" height="13" rx="5" fill="#E5704A" stroke="none" stroke-width="1.6"/><path d="M13 26H19" fill="none" stroke="#24272B" stroke-width="1.5" stroke-linecap="round" stroke-linejoin="round"/><rect x="8.5" y="19" width="3.2" height="1.8" rx="0.9" fill="#F6BC9F" stroke="none" stroke-width="1.6"/><rect x="20.3" y="19" width="3.2" height="1.8" rx="0.9" fill="#F6BC9F" stroke="none" stroke-width="1.6"/><circle cx="12" cy="16" r="1.35" fill="#24272B" stroke="none" stroke-width="1.6"/><circle cx="20" cy="16" r="1.35" fill="#24272B" stroke="none" stroke-width="1.6"/><path d="M10.5 12.5l3 1M18.5 13.5l3-1" fill="none" stroke="#24272B" stroke-width="1.1" stroke-linecap="round" stroke-linejoin="round"/><path d="M18 18l8-3 8 3v7q-1 6-8 9-7-3-8-9Z" fill="#7CAED1" stroke="#24272B" stroke-width="1.6" stroke-linecap="round" stroke-linejoin="round"/><path d="M22 24l3 3 5-6" fill="none" stroke="#F5F3EF" stroke-width="2" stroke-linecap="round" stroke-linejoin="round"/><circle cx="18" cy="25" r="2" fill="#F5F3EF" stroke="#24272B" stroke-width="1.6"/></g></svg>
