<svg xmlns="http://www.w3.org/2000/svg" width="64" height="64" viewBox="0 0 64 64" role="img"><title>教学入门</title><g><path d="M19 12V7" fill="none" stroke="#24272B" stroke-width="1.6" stroke-linecap="round" stroke-linejoin="round"/><circle cx="19" cy="7" r="1.8" fill="#E5704A" stroke="#24272B" stroke-width="1.6"/><path d="M7 20Q7 12 19 12T31 20V28Q31 33 19 33T7 28Z" fill="#F5F3EF" stroke="#24272B" stroke-width="1.6" stroke-linecap="round" stroke-linejoin="round"/><rect x="10" y="17" width="18" height="12" rx="4" fill="#E5704A" stroke="none" stroke-width="1.6"/><circle cx="15" cy="22" r="1.2" fill="#24272B" stroke="none" stroke-width="1.6"/><circle cx="23" cy="22" r="1.2" fill="#24272B" stroke="none" stroke-width="1.6"/><rect x="11" y="25" width="3.5" height="1.8" rx="0.9" fill="#F6BC9F" stroke="none" stroke-width="1.6"/><rect x="23.5" y="25" width="3.5" height="1.8" rx="0.9" fill="#F6BC9F" stroke="none" stroke-width="1.6"/><rect x="22" y="17" width="36" height="30" rx="2" fill="#F5F3EF" stroke="#24272B" stroke-width="1.6"/><path d="M29 24h20M29 30h13" fill="none" stroke="#86B7A2" stroke-width="2.5" stroke-linecap="round" stroke-linejoin="round"/><path d="M40 47v10M34 57h12M16 47l20-12" fill="none" stroke="#24272B" stroke-width="2.5" stroke-linecap="round" stroke-linejoin="round"/><circle cx="18" cy="39" r="5" fill="#E5704A" stroke="#24272B" stroke-width="1.6"/><path d="M9 57v-5q0-8 9-8 6 0 8 5v8Z" fill="#F5F3EF" stroke="#24272B" stroke-width="1.6" stroke-linecap="round" stroke-linejoin="round"/></g></svg>
